<svg xmlns="http://www.w3.org/2000/svg" viewBox="0 0 1024 1536"><defs><pattern id="g" width="72" height="72" patternUnits="userSpaceOnUse"><path d="M72 0L72 72M0 72L72 72" fill="none" stroke="#7A8B7A" stroke-width="0.4" opacity=".08"/></pattern></defs><rect width="1024" height="1536" fill="#F5F0E8"/><rect width="1024" height="1536" fill="url(#g)"/><rect x="60" y="60" width="904" height="1416" fill="none" stroke="#7A8B7A" stroke-width="1.2" opacity=".3"/><rect x="72" y="72" width="880" height="1392" fill="none" stroke="#7A8B7A" stroke-width="0.5" opacity=".15"/><g stroke="#7A8B7A" stroke-width="0.8" opacity=".28"><line x1="44" y1="60" x2="56" y2="60"/><line x1="64" y1="60" x2="76" y2="60"/><line x1="60" y1="44" x2="60" y2="56"/><line x1="60" y1="64" x2="60" y2="76"/><line x1="948" y1="60" x2="960" y2="60"/><line x1="968" y1="60" x2="980" y2="60"/><line x1="964" y1="44" x2="964" y2="56"/><line x1="964" y1="64" x2="964" y2="76"/><line x1="44" y1="1476" x2="56" y2="1476"/><line x1="64" y1="1476" x2="76" y2="1476"/><line x1="60" y1="1460" x2="60" y2="1472"/><line x1="60" y1="1480" x2="60" y2="1492"/><line x1="948" y1="1476" x2="960" y2="1476"/><line x1="968" y1="1476" x2="980" y2="1476"/><line x1="964" y1="1460" x2="964" y2="1472"/><line x1="964" y1="1480" x2="964" y2="1492"/></g><circle cx="512" cy="760" r="121.60000000000001" fill="none" stroke="#C4A0A0" stroke-width="2.8"/><line x1="633.6" y1="760" x2="686.8" y2="760" stroke="#7A8B7A" stroke-width="2.2"/><line x1="572.8000000000001" y1="865.3086891001877" x2="599.4" y2="911.3812405815199" stroke="#7A8B7A" stroke-width="2.2"/><line x1="451.20000000000005" y1="865.3086891001877" x2="424.6" y2="911.3812405815199" stroke="#7A8B7A" stroke-width="2.2"/><line x1="390.4" y1="760" x2="337.2" y2="760" stroke="#7A8B7A" stroke-width="2.2"/><line x1="451.19999999999993" y1="654.6913108998123" x2="424.5999999999999" y2="608.6187594184802" stroke="#7A8B7A" stroke-width="2.2"/><line x1="572.8000000000001" y1="654.6913108998123" x2="599.4" y2="608.6187594184801" stroke="#7A8B7A" stroke-width="2.2"/><circle cx="686.8" cy="760" r="9" fill="#7A8B7A"/><circle cx="599.4" cy="911.3812405815199" r="9" fill="#7A8B7A"/><circle cx="424.6" cy="911.3812405815199" r="9" fill="#7A8B7A"/><circle cx="337.2" cy="760" r="9" fill="#7A8B7A"/><circle cx="424.5999999999999" cy="608.6187594184802" r="9" fill="#7A8B7A"/><circle cx="599.4" cy="608.6187594184801" r="9" fill="#7A8B7A"/><circle cx="512" cy="760" r="9" fill="#C4A0A0"/><text x="512" y="1490" text-anchor="middle" font-family="Georgia, Palatino Linotype, Palatino, Book Antiqua, serif" font-size="34" fill="#7A8B7A" opacity=".45">09</text></svg>