<svg xmlns="http://www.w3.org/2000/svg" viewBox="0 0 1024 1536"><defs><pattern id="g" width="72" height="72" patternUnits="userSpaceOnUse"><path d="M72 0L72 72M0 72L72 72" fill="none" stroke="#7A8B7A" stroke-width="0.4" opacity=".08"/></pattern></defs><rect width="1024" height="1536" fill="#F5F0E8"/><rect width="1024" height="1536" fill="url(#g)"/><rect x="60" y="60" width="904" height="1416" fill="none" stroke="#7A8B7A" stroke-width="1.2" opacity=".3"/><rect x="72" y="72" width="880" height="1392" fill="none" stroke="#7A8B7A" stroke-width="0.5" opacity=".15"/><g stroke="#7A8B7A" stroke-width="0.8" opacity=".28"><line x1="44" y1="60" x2="56" y2="60"/><line x1="64" y1="60" x2="76" y2="60"/><line x1="60" y1="44" x2="60" y2="56"/><line x1="60" y1="64" x2="60" y2="76"/><line x1="948" y1="60" x2="960" y2="60"/><line x1="968" y1="60" x2="980" y2="60"/><line x1="964" y1="44" x2="964" y2="56"/><line x1="964" y1="64" x2="964" y2="76"/><line x1="44" y1="1476" x2="56" y2="1476"/><line x1="64" y1="1476" x2="76" y2="1476"/><line x1="60" y1="1460" x2="60" y2="1472"/><line x1="60" y1="1480" x2="60" y2="1492"/><line x1="948" y1="1476" x2="960" y2="1476"/><line x1="968" y1="1476" x2="980" y2="1476"/><line x1="964" y1="1460" x2="964" y2="1472"/><line x1="964" y1="1480" x2="964" y2="1492"/></g><line x1="470.2" y1="513" x2="470.2" y2="1007" stroke="#7A8B7A" stroke-width="2.4"/><line x1="553.8" y1="513" x2="553.8" y2="1007" stroke="#7A8B7A" stroke-width="2.4"/><line x1="470.2" y1="600.4" x2="553.8" y2="646" stroke="#C4A0A0" stroke-width="1.5"/><line x1="470.2" y1="706.8" x2="553.8" y2="759.96" stroke="#7A8B7A" stroke-width="1.5" opacity=".55"/><line x1="470.2" y1="813.2" x2="553.8" y2="858.8" stroke="#C4A0A0" stroke-width="1.5"/><line x1="470.2" y1="919.6" x2="553.8" y2="969" stroke="#7A8B7A" stroke-width="1.5" opacity=".55"/><line x1="470.2" y1="760.05" x2="553.8" y2="760.05" stroke="#C4A0A0" stroke-width="1.5"/><text x="512" y="1490" text-anchor="middle" font-family="Georgia, Palatino Linotype, Palatino, Book Antiqua, serif" font-size="34" fill="#7A8B7A" opacity=".45">11</text></svg>