<svg xmlns="http://www.w3.org/2000/svg" viewBox="0 0 1024 1536"><defs><pattern id="g" width="72" height="72" patternUnits="userSpaceOnUse"><path d="M72 0L72 72M0 72L72 72" fill="none" stroke="#7A8B7A" stroke-width="0.6" opacity=".12"/></pattern><pattern id="sg" width="18" height="18" patternUnits="userSpaceOnUse"><path d="M18 0L18 18M0 18L18 18" fill="none" stroke="#7A8B7A" stroke-width="0.4" opacity=".06"/></pattern></defs><rect width="1024" height="1536" fill="#F5F0E8"/><rect width="1024" height="1536" fill="url(#sg)"/><rect width="1024" height="1536" fill="url(#g)"/><rect x="96" y="96" width="832" height="1344" fill="none" stroke="#7A8B7A" stroke-width="1.2" opacity=".35"/><rect x="108" y="108" width="808" height="1320" fill="none" stroke="#7A8B7A" stroke-width="0.6" opacity=".18"/><g stroke="#7A8B7A" stroke-width="1" opacity=".35"><line x1="76" y1="96" x2="92" y2="96"/><line x1="100" y1="96" x2="116" y2="96"/><line x1="96" y1="76" x2="96" y2="92"/><line x1="96" y1="100" x2="96" y2="116"/><line x1="908" y1="96" x2="924" y2="96"/><line x1="932" y1="96" x2="948" y2="96"/><line x1="928" y1="76" x2="928" y2="92"/><line x1="928" y1="100" x2="928" y2="116"/><line x1="76" y1="1440" x2="92" y2="1440"/><line x1="100" y1="1440" x2="116" y2="1440"/><line x1="96" y1="1420" x2="96" y2="1436"/><line x1="96" y1="1444" x2="96" y2="1460"/><line x1="908" y1="1440" x2="924" y2="1440"/><line x1="932" y1="1440" x2="948" y2="1440"/><line x1="928" y1="1420" x2="928" y2="1436"/><line x1="928" y1="1444" x2="928" y2="1460"/></g><circle cx="442" cy="690" r="80" fill="none" stroke="#7A8B7A" stroke-width="1.5"/><line x1="386" y1="746" x2="638" y2="734" stroke="#C4A0A0" stroke-width="1.2"/><circle cx="638" cy="734" r="5" fill="#C4A0A0"/><line x1="282" y1="850" x2="742" y2="850" stroke="#7A8B7A" stroke-width="0.5" opacity=".12"/><text x="512" y="1470" text-anchor="middle" font-family="Georgia, Palatino Linotype, Palatino, Book Antiqua, serif" font-size="36" fill="#7A8B7A" opacity=".5">01</text></svg>