<svg xmlns="http://www.w3.org/2000/svg" viewBox="0 0 1080 1080" width="1080" height="1080"><defs><pattern id="grid" width="40" height="40" patternUnits="userSpaceOnUse"><path d="M40 0L40 40M0 40L40 40" fill="none" stroke="#7A8B7A" stroke-width="0.5" opacity="0.08"/></pattern></defs><rect width="1080" height="1080" fill="#F5F0E8"/><rect width="1080" height="1080" fill="url(#grid)"/><text x="540" y="85" text-anchor="middle" font-family="Georgia, 'Palatino Linotype', Palatino, 'Book Antiqua', serif" font-size="16" fill="#7A8B7A" letter-spacing="6" opacity="0.7">LENORMAND · DAILY</text><text x="540" y="165" text-anchor="middle" font-family="'Noto Serif CJK SC', 'Songti SC', 'STSong', serif" font-size="58" font-weight="500" fill="#2a2a2a" letter-spacing="12">今日運勢</text><text x="540" y="200" text-anchor="middle" font-family="Georgia, 'Palatino Linotype', Palatino, 'Book Antiqua', serif" font-size="15" fill="#9AA89A" opacity="0.8">2026年6月20日 · 星期六</text><g><rect x="60" y="320" width="300" height="450" fill="#F5F0E8" rx="4"/><rect x="68" y="328" width="284" height="434" fill="none" stroke="#7A8B7A" stroke-width="2" opacity="0.6" rx="2"/><rect x="76" y="336" width="268" height="418" fill="none" stroke="#7A8B7A" stroke-width="1" opacity="0.25" rx="1"/><g stroke="#7A8B7A" stroke-width="1.5" opacity="0.4"><line x1="72" y1="340" x2="80" y2="340"/><line x1="80" y1="332" x2="80" y2="340"/><line x1="348" y1="340" x2="340" y2="340"/><line x1="340" y1="332" x2="340" y2="340"/><line x1="72" y1="750" x2="80" y2="750"/><line x1="80" y1="758" x2="80" y2="750"/><line x1="348" y1="750" x2="340" y2="750"/><line x1="340" y1="758" x2="340" y2="750"/></g><circle cx="210" cy="494.5" r="36.300000000000004" fill="none" stroke="#7A8B7A" stroke-width="3"/><circle cx="157.365" cy="585.25" r="36.300000000000004" fill="none" stroke="#7A8B7A" stroke-width="3"/><circle cx="262.635" cy="585.25" r="36.300000000000004" fill="none" stroke="#7A8B7A" stroke-width="3"/><line x1="210" y1="494.5" x2="157.365" y2="585.25" stroke="#7A8B7A" stroke-width="1.5" opacity="0.3"/><line x1="157.365" y1="585.25" x2="262.635" y2="585.25" stroke="#7A8B7A" stroke-width="1.5" opacity="0.3"/><line x1="262.635" y1="585.25" x2="210" y2="494.5" stroke="#7A8B7A" stroke-width="1.5" opacity="0.3"/><circle cx="210" cy="555" r="6" fill="#C4A0A0"/><text x="210" y="740" text-anchor="middle" font-family="Georgia, 'Palatino Linotype', Palatino, 'Book Antiqua', serif" font-size="28" fill="#7A8B7A" opacity="0.55">02</text></g><g><rect x="390" y="320" width="300" height="450" fill="#F5F0E8" rx="4"/><rect x="398" y="328" width="284" height="434" fill="none" stroke="#7A8B7A" stroke-width="2" opacity="0.6" rx="2"/><rect x="406" y="336" width="268" height="418" fill="none" stroke="#7A8B7A" stroke-width="1" opacity="0.25" rx="1"/><g stroke="#7A8B7A" stroke-width="1.5" opacity="0.4"><line x1="402" y1="340" x2="410" y2="340"/><line x1="410" y1="332" x2="410" y2="340"/><line x1="678" y1="340" x2="670" y2="340"/><line x1="670" y1="332" x2="670" y2="340"/><line x1="402" y1="750" x2="410" y2="750"/><line x1="410" y1="758" x2="410" y2="750"/><line x1="678" y1="750" x2="670" y2="750"/><line x1="670" y1="758" x2="670" y2="750"/></g><circle cx="540" cy="555" r="82.5" fill="none" stroke="#7A8B7A" stroke-width="3"/><circle cx="556.5" cy="544" r="38.5" fill="none" stroke="#C4A0A0" stroke-width="3"/><circle cx="556.5" cy="544" r="6" fill="#C4A0A0"/><text x="540" y="740" text-anchor="middle" font-family="Georgia, 'Palatino Linotype', Palatino, 'Book Antiqua', serif" font-size="28" fill="#7A8B7A" opacity="0.55">13</text></g><g><rect x="720" y="320" width="300" height="450" fill="#F5F0E8" rx="4"/><rect x="728" y="328" width="284" height="434" fill="none" stroke="#7A8B7A" stroke-width="2" opacity="0.6" rx="2"/><rect x="736" y="336" width="268" height="418" fill="none" stroke="#7A8B7A" stroke-width="1" opacity="0.25" rx="1"/><g stroke="#7A8B7A" stroke-width="1.5" opacity="0.4"><line x1="732" y1="340" x2="740" y2="340"/><line x1="740" y1="332" x2="740" y2="340"/><line x1="1008" y1="340" x2="1000" y2="340"/><line x1="1000" y1="332" x2="1000" y2="340"/><line x1="732" y1="750" x2="740" y2="750"/><line x1="740" y1="758" x2="740" y2="750"/><line x1="1008" y1="750" x2="1000" y2="750"/><line x1="1000" y1="758" x2="1000" y2="750"/></g><circle cx="870" cy="555" r="77" fill="none" stroke="#7A8B7A" stroke-width="3"/><path d="M749 555 Q815 467 870 555 Q925 643 991 555" fill="none" stroke="#C4A0A0" stroke-width="3.5"/><circle cx="870" cy="555" r="6" fill="#C4A0A0"/><text x="870" y="740" text-anchor="middle" font-family="Georgia, 'Palatino Linotype', Palatino, 'Book Antiqua', serif" font-size="28" fill="#7A8B7A" opacity="0.55">07</text></g><text x="210" y="818" text-anchor="middle" font-family="'Noto Serif CJK SC', 'Songti SC', 'STSong', serif" font-size="20" fill="#3d3d3a">幸運草</text><text x="210" y="842" text-anchor="middle" font-family="Georgia, 'Palatino Linotype', Palatino, 'Book Antiqua', serif" font-size="13" fill="#9AA89A" opacity="0.7" font-style="italic">過去</text><text x="540" y="818" text-anchor="middle" font-family="'Noto Serif CJK SC', 'Songti SC', 'STSong', serif" font-size="20" fill="#3d3d3a">小孩</text><text x="540" y="842" text-anchor="middle" font-family="Georgia, 'Palatino Linotype', Palatino, 'Book Antiqua', serif" font-size="13" fill="#9AA89A" opacity="0.7" font-style="italic">現在</text><text x="870" y="818" text-anchor="middle" font-family="'Noto Serif CJK SC', 'Songti SC', 'STSong', serif" font-size="20" fill="#3d3d3a">蛇</text><text x="870" y="842" text-anchor="middle" font-family="Georgia, 'Palatino Linotype', Palatino, 'Book Antiqua', serif" font-size="13" fill="#9AA89A" opacity="0.7" font-style="italic">未來</text><text x="540" y="1050" text-anchor="middle" font-family="Georgia, 'Palatino Linotype', Palatino, 'Book Antiqua', serif" font-size="11" fill="#7A8B7A" opacity="0.35" letter-spacing="3">GEOMETRIC SILENCE</text></svg>